<svg width="25" height="25" viewBox="0 0 25 25" fill="none" xmlns="http://www.w3.org/2000/svg">
<path d="M16.4305 21.2835V19.2841C16.4305 18.2235 16.0092 17.2064 15.2593 16.4565C14.5094 15.7065 13.4922 15.2852 12.4317 15.2852H6.43341C5.37285 15.2852 4.35573 15.7065 3.6058 16.4565C2.85588 17.2064 2.43457 18.2235 2.43457 19.2841V21.2835" stroke="#2563EB" stroke-width="2" stroke-linecap="round" stroke-linejoin="round"/>
<path d="M9.43341 11.2864C11.6419 11.2864 13.4323 9.49604 13.4323 7.28754C13.4323 5.07904 11.6419 3.2887 9.43341 3.2887C7.22491 3.2887 5.43457 5.07904 5.43457 7.28754C5.43457 9.49604 7.22491 11.2864 9.43341 11.2864Z" stroke="#2563EB" stroke-width="2" stroke-linecap="round" stroke-linejoin="round"/>
<path d="M16.4307 11.2864L18.4301 13.2858L22.4289 9.28696" stroke="#2563EB" stroke-width="2" stroke-linecap="round" stroke-linejoin="round"/>
</svg>
