<svg width="25" height="25" viewBox="0 0 25 25" fill="none" xmlns="http://www.w3.org/2000/svg">
<path d="M15.9079 13.2036L17.4225 21.7272C17.4394 21.8275 17.4253 21.9307 17.3821 22.0228C17.3388 22.115 17.2685 22.1917 17.1805 22.2428C17.0924 22.2939 16.9909 22.3169 16.8894 22.3087C16.788 22.3005 16.6914 22.2616 16.6127 22.197L13.0337 19.5108C12.861 19.3817 12.6511 19.312 12.4354 19.312C12.2197 19.312 12.0098 19.3817 11.8371 19.5108L8.25211 22.196C8.17345 22.2605 8.07702 22.2994 7.97568 22.3076C7.87435 22.3157 7.77292 22.2928 7.68494 22.2419C7.59695 22.191 7.52659 22.1144 7.48325 22.0224C7.43991 21.9305 7.42564 21.8275 7.44234 21.7272L8.95591 13.2036" stroke="#2563EB" stroke-width="2" stroke-linecap="round" stroke-linejoin="round"/>
<path d="M12.4319 14.3133C15.7446 14.3133 18.4301 11.6278 18.4301 8.31507C18.4301 5.00232 15.7446 2.3168 12.4319 2.3168C9.11911 2.3168 6.43359 5.00232 6.43359 8.31507C6.43359 11.6278 9.11911 14.3133 12.4319 14.3133Z" stroke="#2563EB" stroke-width="2" stroke-linecap="round" stroke-linejoin="round"/>
</svg>
