<svg width="21" height="21" viewBox="0 0 21 21" fill="none" xmlns="http://www.w3.org/2000/svg">
<g clip-path="url(#clip0_107_900)">
<path d="M14.3551 2.6311H6.02656C3.72671 2.6311 1.8623 4.4955 1.8623 6.79536V15.1239C1.8623 17.4237 3.72671 19.2881 6.02656 19.2881H14.3551C16.6549 19.2881 18.5193 17.4237 18.5193 15.1239V6.79536C18.5193 4.4955 16.6549 2.6311 14.3551 2.6311Z" stroke="#D1D5DB" stroke-width="2" stroke-linecap="round" stroke-linejoin="round"/>
<path d="M13.5223 10.4348C13.6251 11.1279 13.5067 11.8358 13.1839 12.4578C12.8612 13.0798 12.3506 13.5841 11.7247 13.8992C11.0988 14.2142 10.3895 14.3239 9.69766 14.2125C9.00584 14.1012 8.36674 13.7746 7.87126 13.2791C7.37578 12.7836 7.04914 12.1445 6.93782 11.4527C6.8265 10.7609 6.93615 10.0516 7.25119 9.42568C7.56622 8.79978 8.0706 8.28915 8.69257 7.96642C9.31454 7.64369 10.0224 7.5253 10.7156 7.62808C11.4226 7.73292 12.0772 8.06238 12.5826 8.56779C13.088 9.0732 13.4174 9.72776 13.5223 10.4348Z" stroke="#D1D5DB" stroke-width="2" stroke-linecap="round" stroke-linejoin="round"/>
<path d="M14.7715 6.37891H14.7798" stroke="#D1D5DB" stroke-width="2" stroke-linecap="round" stroke-linejoin="round"/>
</g>
<defs>
<clipPath id="clip0_107_900">
<rect width="19.9884" height="19.9884" fill="white" transform="translate(0.196289 0.965332)"/>
</clipPath>
</defs>
</svg>
