<svg width="24" height="24" viewBox="0 0 24 24" fill="none" xmlns="http://www.w3.org/2000/svg">
<path d="M19.9944 9.99036C19.9944 14.9819 14.457 20.1804 12.5975 21.786C12.4243 21.9162 12.2134 21.9866 11.9967 21.9866C11.78 21.9866 11.5691 21.9162 11.3959 21.786C9.53642 20.1804 3.99902 14.9819 3.99902 9.99036C3.99902 7.86924 4.84163 5.835 6.34149 4.33514C7.84135 2.83529 9.87559 1.99268 11.9967 1.99268C14.1178 1.99268 16.1521 2.83529 17.6519 4.33514C19.1518 5.835 19.9944 7.86924 19.9944 9.99036Z" stroke="#2563EB" stroke-width="2" stroke-linecap="round" stroke-linejoin="round"/>
<path d="M11.9962 12.9895C13.6526 12.9895 14.9953 11.6467 14.9953 9.99034C14.9953 8.33397 13.6526 6.99121 11.9962 6.99121C10.3398 6.99121 8.99707 8.33397 8.99707 9.99034C8.99707 11.6467 10.3398 12.9895 11.9962 12.9895Z" stroke="#2563EB" stroke-width="2" stroke-linecap="round" stroke-linejoin="round"/>
</svg>
