<svg width="19" height="18" viewBox="0 0 19 18" fill="none" xmlns="http://www.w3.org/2000/svg">
<g clip-path="url(#clip0_107_516)">
<path d="M17.3058 12.6792V14.9289C17.3066 15.1378 17.2638 15.3445 17.1802 15.5359C17.0965 15.7272 16.9738 15.899 16.8199 16.0402C16.666 16.1814 16.4843 16.2889 16.2865 16.3558C16.0886 16.4227 15.879 16.4476 15.671 16.4288C13.3634 16.178 11.1468 15.3895 9.19931 14.1266C7.38742 12.9752 5.85125 11.439 4.69989 9.62713C3.43254 7.67078 2.64384 5.44341 2.39769 3.12546C2.37895 2.91809 2.40359 2.70909 2.47005 2.51176C2.53651 2.31443 2.64333 2.13311 2.78371 1.97933C2.92409 1.82555 3.09495 1.70268 3.28542 1.61855C3.47588 1.53442 3.68178 1.49087 3.89 1.49067H6.13971C6.50364 1.48709 6.85646 1.61597 7.1324 1.85328C7.40834 2.09059 7.58858 2.42014 7.63951 2.78051C7.73447 3.50046 7.91057 4.20737 8.16445 4.88774C8.26534 5.15615 8.28718 5.44785 8.22737 5.72829C8.16756 6.00873 8.02861 6.26614 7.82699 6.47003L6.87461 7.42241C7.94214 9.29983 9.49662 10.8543 11.374 11.9218L12.3264 10.9695C12.5303 10.7678 12.7877 10.6289 13.0682 10.5691C13.3486 10.5093 13.6403 10.5311 13.9087 10.632C14.5891 10.8859 15.296 11.062 16.0159 11.1569C16.3802 11.2083 16.7129 11.3918 16.9507 11.6725C17.1885 11.9532 17.3149 12.3115 17.3058 12.6792Z" stroke="white" stroke-width="2" stroke-linecap="round" stroke-linejoin="round"/>
</g>
<defs>
<clipPath id="clip0_107_516">
<rect width="17.9977" height="17.9977" fill="white" transform="translate(0.807617 -0.00927734)"/>
</clipPath>
</defs>
</svg>
