<svg width="24" height="24" viewBox="0 0 24 24" fill="none" xmlns="http://www.w3.org/2000/svg">
<path d="M21.9937 16.9082V19.9073C21.9948 20.1858 21.9378 20.4614 21.8263 20.7165C21.7147 20.9716 21.5511 21.2006 21.346 21.3888C21.1408 21.577 20.8986 21.7203 20.6348 21.8095C20.3711 21.8987 20.0916 21.9318 19.8143 21.9068C16.738 21.5725 13.7831 20.5213 11.1868 18.8377C8.77135 17.3028 6.72345 15.2549 5.18855 12.8394C3.49902 10.2313 2.44759 7.262 2.11944 4.1719C2.09446 3.89544 2.12732 3.61682 2.21591 3.35376C2.30451 3.0907 2.44692 2.84897 2.63406 2.64396C2.8212 2.43895 3.04898 2.27516 3.30289 2.163C3.5568 2.05085 3.83129 1.99279 4.10887 1.99253H7.108C7.59317 1.98775 8.06351 2.15956 8.43138 2.47592C8.79924 2.79228 9.03952 3.23162 9.10742 3.71203C9.23401 4.67182 9.46877 5.61421 9.80722 6.52122C9.94172 6.87904 9.97083 7.26792 9.8911 7.64177C9.81137 8.01563 9.62613 8.3588 9.35735 8.63061L8.08772 9.90024C9.51086 12.4031 11.5832 14.4754 14.086 15.8985L15.3556 14.6289C15.6274 14.3601 15.9706 14.1749 16.3444 14.0951C16.7183 14.0154 17.1072 14.0445 17.465 14.179C18.372 14.5175 19.3144 14.7522 20.2742 14.8788C20.7598 14.9473 21.2033 15.1919 21.5204 15.5661C21.8374 15.9403 22.0059 16.4179 21.9937 16.9082Z" stroke="#2563EB" stroke-width="2" stroke-linecap="round" stroke-linejoin="round"/>
</svg>
